# xmcd CD database file
#
# Track frame offsets:
#	150
#	22782
#	41664
#	56881
#	73288
#	89765
#	107052
#	122024
#	133466
#	146263
#
# Disc length: 2216 seconds
#
# Revision: 0
# Processed by: cddbd v1.5.2PL0 Copyright (c) Steve Scherf et al.
# Submitted via: jetAudio 7
#
DISCID=9708a60a
DTITLE=Unknown Artist - Unknown Album
DYEAR=1900
DGENRE=Unknown Genre
TTITLE0=WHERE WERE YOU
TTITLE1=I DONT WANNA MISS A THING
TTITLE2=WHEN I CLOSE MY EYES
TTITLE3=PLEASE REMEMBER ME
TTITLE4=THE RIVER
TTITLE5=DOES THE BLUE MOON EVER SHINE
TTITLE6=THE DANCE
TTITLE7=BEFORE THE NEXT TEARDROP FALLS
TTITLE8=THE CHAIR
TTITLE9=REMEMBER WHEN
EXTD=
EXTT0=
EXTT1=
EXTT2=
EXTT3=
EXTT4=
EXTT5=
EXTT6=
EXTT7=
EXTT8=
EXTT9=
PLAYORDER=
